<svg aria-hidden="true" style="position: absolute; width: 0; height: 0; overflow: hidden;" version="1.1" xmlns="http://www.w3.org/2000/svg" xmlns:xlink="http://www.w3.org/1999/xlink">
<defs>
<symbol id="icon-square" viewBox="0 0 32 32">
<path d="M20 30.333h-8c-7.24 0-10.333-3.093-10.333-10.333v-8c0-7.24 3.093-10.333 10.333-10.333h8c7.24 0 10.333 3.093 10.333 10.333v8c0 7.24-3.093 10.333-10.333 10.333zM12 3.667c-6.147 0-8.333 2.187-8.333 8.333v8c0 6.147 2.187 8.333 8.333 8.333h8c6.147 0 8.333-2.187 8.333-8.333v-8c0-6.147-2.187-8.333-8.333-8.333h-8z"></path>
<path d="M16.001 17.44c-0.173 0-0.347-0.040-0.507-0.133l-7.067-4.080c-0.48-0.28-0.64-0.893-0.36-1.36 0.28-0.48 0.893-0.64 1.36-0.36l6.56 3.8 6.52-3.773c0.48-0.28 1.093-0.107 1.36 0.36s0.107 1.093-0.36 1.36l-7.013 4.053c-0.147 0.080-0.32 0.133-0.493 0.133z"></path>
<path d="M16 24.693c-0.547 0-1-0.453-1-1v-7.253c0-0.547 0.453-1 1-1s1 0.453 1 1v7.253c0 0.547-0.453 1-1 1z"></path>
<path d="M16 25c-0.773 0-1.533-0.173-2.147-0.507l-4.267-2.373c-1.28-0.707-2.267-2.4-2.267-3.867v-4.52c0-1.453 1-3.147 2.267-3.867l4.267-2.373c1.227-0.68 3.067-0.68 4.293 0l4.267 2.373c1.28 0.707 2.267 2.4 2.267 3.867v4.52c0 1.453-1 3.147-2.267 3.867l-4.267 2.373c-0.613 0.347-1.373 0.507-2.147 0.507zM16 9c-0.44 0-0.867 0.080-1.173 0.253l-4.267 2.373c-0.653 0.36-1.24 1.373-1.24 2.107v4.52c0 0.747 0.587 1.747 1.24 2.107l4.267 2.373c0.613 0.347 1.733 0.347 2.347 0l4.267-2.373c0.653-0.36 1.24-1.373 1.24-2.107v-4.52c0-0.747-0.587-1.747-1.24-2.107l-4.267-2.373c-0.307-0.173-0.733-0.253-1.173-0.253z"></path>
</symbol>
<symbol id="icon-chevron" viewBox="0 0 32 32">
<path d="M10.586 6.586c0.781-0.781 2.047-0.781 2.828 0l8 8c0.781 0.781 0.781 2.047 0 2.828l-8 8c-0.781 0.781-2.047 0.781-2.828 0s-0.781-2.047 0-2.828l6.586-6.586-6.586-6.586c-0.781-0.781-0.781-2.047 0-2.828z"></path>
</symbol>
<symbol id="icon-discount" viewBox="0 0 32 32">
<path d="M16 30.334c-0.84 0-1.627-0.32-2.213-0.92l-2.027-2.027c-0.16-0.16-0.587-0.333-0.8-0.333h-2.88c-1.733 0-3.133-1.4-3.133-3.133v-2.88c0-0.213-0.173-0.64-0.333-0.8l-2.027-2.027c-0.587-0.587-0.92-1.373-0.92-2.213s0.32-1.627 0.92-2.213l2.027-2.027c0.16-0.16 0.333-0.587 0.333-0.8v-2.88c0-1.733 1.4-3.133 3.133-3.133h2.88c0.213 0 0.64-0.173 0.8-0.333l2.027-2.027c1.173-1.173 3.253-1.173 4.427 0l2.027 2.027c0.16 0.16 0.587 0.333 0.8 0.333h2.88c1.733 0 3.133 1.4 3.133 3.133v2.88c0 0.213 0.173 0.64 0.333 0.8l2.027 2.027c0.587 0.587 0.92 1.373 0.92 2.213s-0.32 1.627-0.92 2.213l-2.027 2.027c-0.16 0.16-0.333 0.587-0.333 0.8v2.88c0 1.733-1.4 3.133-3.133 3.133h-2.88c-0.213 0-0.64 0.173-0.8 0.333l-2.027 2.027c-0.587 0.6-1.373 0.92-2.213 0.92zM6.027 18.827c0.533 0.533 0.92 1.467 0.92 2.213v2.88c0 0.627 0.507 1.133 1.133 1.133h2.88c0.747 0 1.68 0.387 2.213 0.92l2.027 2.027c0.427 0.427 1.173 0.427 1.6 0l2.027-2.027c0.533-0.533 1.467-0.92 2.213-0.92h2.88c0.627 0 1.133-0.507 1.133-1.133v-2.88c0-0.747 0.387-1.68 0.92-2.213l2.027-2.027c0.213-0.213 0.333-0.493 0.333-0.8s-0.12-0.587-0.333-0.8l-2.027-2.027c-0.533-0.533-0.92-1.467-0.92-2.213v-2.88c0-0.627-0.507-1.133-1.133-1.133h-2.88c-0.747 0-1.68-0.387-2.213-0.92l-2.027-2.027c-0.427-0.427-1.173-0.427-1.6 0l-2.027 2.027c-0.533 0.533-1.467 0.92-2.213 0.92h-2.88c-0.627 0-1.133 0.507-1.133 1.133v2.88c0 0.747-0.387 1.68-0.92 2.213l-2.027 2.027c-0.213 0.213-0.333 0.493-0.333 0.8s0.12 0.587 0.333 0.8l2.027 2.027z"></path>
<path d="M20 21.333c-0.747 0-1.347-0.6-1.347-1.333s0.6-1.333 1.333-1.333c0.733 0 1.333 0.6 1.333 1.333s-0.587 1.333-1.32 1.333z"></path>
<path d="M12.013 13.333c-0.747 0-1.347-0.6-1.347-1.333s0.6-1.333 1.333-1.333c0.733 0 1.333 0.6 1.333 1.333s-0.587 1.333-1.32 1.333z"></path>
<path d="M11.999 20.999c-0.253 0-0.507-0.093-0.707-0.293-0.387-0.387-0.387-1.027 0-1.413l8-8c0.387-0.387 1.027-0.387 1.413 0s0.387 1.027 0 1.413l-8 8c-0.2 0.2-0.453 0.293-0.707 0.293z"></path>
</symbol>
<symbol id="icon-key" viewBox="0 0 32 32">
<path d="M4.126 4.126c1.779-1.779 4.442-2.46 7.874-2.46h8c3.432 0 6.095 0.68 7.874 2.46s2.46 4.442 2.46 7.874v8c0 3.432-0.68 6.095-2.46 7.874s-4.442 2.46-7.874 2.46h-8c-3.432 0-6.094-0.68-7.874-2.46s-2.46-4.442-2.46-7.874v-8c0-3.432 0.68-6.094 2.46-7.874zM5.54 5.54c-1.221 1.221-1.874 3.225-1.874 6.46v8c0 3.235 0.653 5.239 1.874 6.46s3.225 1.874 6.46 1.874h8c3.235 0 5.239-0.653 6.46-1.874s1.874-3.225 1.874-6.46v-8c0-3.235-0.653-5.239-1.874-6.46s-3.225-1.874-6.46-1.874h-8c-3.235 0-5.239 0.653-6.46 1.874z"></path>
<path d="M21.002 11.016c1.764 1.753 1.77 4.639-0.003 6.425-1.236 1.235-3.004 1.617-4.565 1.125-0.355-0.112-0.742-0.017-1.006 0.245l-3.453 3.44c-0.003 0.003-0.006 0.006-0.008 0.008-0.002 0.002-0.006 0.004-0.010 0.006-0.020 0.012-0.050 0.026-0.089 0.039s-0.075 0.020-0.104 0.023c-0.019 0.002-0.030 0.002-0.033 0.002l-1.619-0.216c0 0 0 0 0 0-0.004-0.001-0.058-0.015-0.127-0.085s-0.095-0.138-0.101-0.164l-0.211-1.584-0.001-0.006c0-0.004 0.001-0.010 0.002-0.018 0.003-0.027 0.011-0.064 0.026-0.107s0.032-0.081 0.048-0.111c0.010-0.017 0.017-0.027 0.020-0.032l3.421-3.421c0.262-0.262 0.358-0.647 0.249-1.001-0.483-1.57-0.108-3.34 1.125-4.572 1.768-1.768 4.657-1.771 6.441 0.002zM22.412 9.597c-2.562-2.546-6.714-2.55-9.265 0.002-1.624 1.624-2.209 3.888-1.776 5.976l-3.056 3.057c-0.245 0.258-0.412 0.584-0.512 0.881-0.098 0.291-0.168 0.664-0.112 1.040l0.212 1.592 0.003 0.020c0.077 0.498 0.332 0.94 0.652 1.266s0.769 0.599 1.301 0.667l1.591 0.212c0.367 0.053 0.737-0.005 1.041-0.105 0.298-0.098 0.638-0.27 0.904-0.545l3.040-3.029c2.094 0.444 4.359-0.157 5.979-1.778l0.002-0.002c2.545-2.561 2.551-6.714-0.004-9.254z"></path>
<path d="M12.097 19.849c0.393-0.388 1.026-0.385 1.414 0.008l1.133 1.147c0.388 0.393 0.385 1.026-0.008 1.414s-1.026 0.385-1.414-0.008l-1.133-1.147c-0.388-0.393-0.385-1.026 0.008-1.414z"></path>
<path d="M16.526 14.267c0-0.736 0.597-1.333 1.333-1.333h0.012c0.736 0 1.333 0.597 1.333 1.333s-0.597 1.333-1.333 1.333h-0.012c-0.736 0-1.333-0.597-1.333-1.333z"></path>
</symbol>
<symbol id="icon-question" viewBox="0 0 32 32">
<path d="M10.667 29.76c-0.373 0-0.76-0.093-1.107-0.28-0.76-0.4-1.227-1.2-1.227-2.053v-1.893c-4.027-0.413-6.667-3.373-6.667-7.613v-8c0-4.587 3.080-7.667 7.667-7.667h13.333c4.587 0 7.667 3.080 7.667 7.667v8c0 4.587-3.080 7.667-7.667 7.667h-5.027l-5.68 3.787c-0.387 0.253-0.84 0.387-1.293 0.387zM9.333 4.24c-3.44 0-5.667 2.227-5.667 5.667v8c0 3.44 2.227 5.667 5.667 5.667 0.547 0 1 0.453 1 1v2.84c0 0.173 0.107 0.253 0.173 0.293s0.2 0.080 0.347-0.013l5.933-3.947c0.16-0.107 0.36-0.173 0.56-0.173h5.333c3.44 0 5.667-2.227 5.667-5.667v-8c0-3.44-2.227-5.667-5.667-5.667h-13.347z"></path>
<path d="M16 16.147c-0.547 0-1-0.453-1-1v-0.28c0-1.547 1.133-2.307 1.56-2.6 0.493-0.333 0.653-0.56 0.653-0.907 0-0.667-0.547-1.213-1.213-1.213s-1.213 0.547-1.213 1.213c0 0.547-0.453 1-1 1s-1-0.453-1-1c0-1.773 1.44-3.213 3.213-3.213s3.213 1.44 3.213 3.213c0 1.52-1.12 2.28-1.533 2.56-0.52 0.347-0.68 0.573-0.68 0.947v0.28c0 0.56-0.453 1-1 1z"></path>
<path d="M16 19.467c-0.56 0-1-0.453-1-1s0.453-1 1-1c0.547 0 1 0.453 1 1s-0.44 1-1 1z"></path>
</symbol>
<symbol id="icon-setting" viewBox="0 0 32 32">
<path d="M16 30.173c-0.893 0-1.8-0.2-2.507-0.613l-7.333-4.227c-2.987-2.013-3.173-2.32-3.173-5.48v-7.707c0-3.16 0.173-3.467 3.107-5.453l7.387-4.267c1.4-0.813 3.6-0.813 5 0l7.36 4.24c2.987 2.013 3.173 2.32 3.173 5.48v7.693c0 3.16-0.173 3.467-3.107 5.453l-7.387 4.267c-0.72 0.413-1.627 0.613-2.52 0.613zM16 3.826c-0.56 0-1.107 0.107-1.493 0.333l-7.333 4.24c-2.173 1.467-2.173 1.467-2.173 3.747v7.693c0 2.28 0 2.28 2.227 3.787l7.28 4.2c0.787 0.453 2.213 0.453 3 0l7.333-4.24c2.16-1.467 2.16-1.467 2.16-3.747v-7.693c0-2.28 0-2.28-2.227-3.787l-7.28-4.2c-0.387-0.227-0.933-0.333-1.493-0.333z"></path>
<path d="M16 21c-2.76 0-5-2.24-5-5s2.24-5 5-5c2.76 0 5 2.24 5 5s-2.24 5-5 5zM16 13c-1.653 0-3 1.347-3 3s1.347 3 3 3c1.653 0 3-1.347 3-3s-1.347-3-3-3z"></path>
</symbol>
<symbol id="icon-user" viewBox="0 0 32 32">
<path d="M20.001 30.333h-8c-1.76 0-3.227-0.173-4.467-0.547-0.453-0.133-0.747-0.573-0.72-1.040 0.333-3.987 4.373-7.12 9.187-7.12s8.84 3.12 9.187 7.12c0.040 0.48-0.253 0.907-0.72 1.040-1.24 0.373-2.707 0.547-4.467 0.547zM8.961 28.080c0.88 0.173 1.88 0.253 3.040 0.253h8c1.16 0 2.16-0.080 3.040-0.253-0.707-2.56-3.627-4.453-7.040-4.453s-6.333 1.893-7.040 4.453z"></path>
<path d="M4.126 4.126c1.779-1.779 4.442-2.46 7.874-2.46h8c3.432 0 6.095 0.68 7.874 2.46s2.46 4.442 2.46 7.874v8c0 2.601-0.389 4.752-1.347 6.417-0.982 1.706-2.501 2.798-4.528 3.372-0.287 0.081-0.596 0.030-0.841-0.14s-0.402-0.441-0.427-0.738c-0.236-2.79-3.2-5.284-7.19-5.284s-6.954 2.495-7.19 5.284c-0.025 0.298-0.182 0.568-0.427 0.738s-0.554 0.221-0.841 0.14c-2.027-0.574-3.546-1.666-4.528-3.372-0.958-1.665-1.347-3.816-1.347-6.417v-8c0-3.432 0.68-6.094 2.46-7.874zM5.54 5.54c-1.221 1.221-1.874 3.225-1.874 6.46v8c0 2.439 0.371 4.188 1.080 5.42 0.524 0.911 1.264 1.594 2.3 2.068 0.993-3.476 4.764-5.861 8.953-5.861s7.961 2.385 8.953 5.861c1.036-0.474 1.776-1.157 2.3-2.068 0.709-1.232 1.080-2.98 1.080-5.42v-8c0-3.235-0.653-5.239-1.874-6.46s-3.225-1.874-6.46-1.874h-8c-3.235 0-5.239 0.653-6.46 1.874zM16 10.333c-2.088 0-3.773 1.686-3.773 3.773 0 2.091 1.689 3.787 3.773 3.787s3.773-1.695 3.773-3.787c0-2.088-1.686-3.773-3.773-3.773zM10.227 14.107c0-3.192 2.581-5.773 5.773-5.773s5.773 2.581 5.773 5.773c0 3.189-2.577 5.787-5.773 5.787s-5.773-2.598-5.773-5.787z"></path>
<path d="M16 19.893c-3.187 0-5.773-2.6-5.773-5.787s2.587-5.773 5.773-5.773c3.187 0 5.773 2.587 5.773 5.773s-2.587 5.787-5.773 5.787zM16 10.333c-2.080 0-3.773 1.693-3.773 3.773 0 2.093 1.693 3.787 3.773 3.787s3.773-1.693 3.773-3.787c0-2.080-1.693-3.773-3.773-3.773z"></path>
</symbol>
<symbol id="icon-wallet" viewBox="0 0 32 32">
<path d="M4.802 21.481c0.552 0 1 0.448 1 1 0 1.547 1.47 2.92 3.773 2.92 2.286 0 3.76-1.382 3.76-2.92 0-0.552 0.448-1 1-1s1 0.448 1 1v2.707c0 2.971-2.716 5.147-5.76 5.147-3.040 0-5.773-2.172-5.773-5.147v-2.707c0-0.552 0.448-1 1-1zM6.14 26.475c0.574 1.055 1.834 1.859 3.435 1.859s2.859-0.806 3.428-1.865c-0.986 0.603-2.192 0.932-3.428 0.932-1.239 0-2.447-0.326-3.435-0.926z"></path>
<path d="M9.547 15.68c-1.091 0-2.040 0.374-2.714 0.965l-0.001 0.001c-0.667 0.583-1.045 1.347-1.045 2.167 0 0.473 0.13 0.908 0.361 1.294 0.57 0.923 1.82 1.626 3.412 1.626 1.598 0 2.844-0.694 3.411-1.624 0.232-0.387 0.363-0.823 0.363-1.296 0-0.823-0.38-1.59-1.054-2.152l-0.013-0.011 0-0c-0.682-0.588-1.637-0.971-2.721-0.971zM5.514 15.141c1.059-0.929 2.484-1.461 4.033-1.461 1.553 0 2.97 0.548 4.020 1.45 1.083 0.905 1.767 2.215 1.767 3.683 0 0.859-0.242 1.649-0.649 2.328l-0.003 0.005c-1.007 1.655-2.987 2.587-5.121 2.587-2.139 0-4.114-0.948-5.119-2.583l-0.006-0.009h0c-0.407-0.679-0.649-1.469-0.649-2.328 0-1.473 0.688-2.763 1.728-3.673l-0.001 0.001z"></path>
<path d="M9.575 15.667c-2.224 0-3.773 1.533-3.773 3.147v3.667c0 1.535 1.484 2.92 3.773 2.92 2.288 0 3.76-1.371 3.76-2.92v-3.667c0-0.823-0.38-1.598-1.042-2.178-0.682-0.586-1.635-0.968-2.718-0.968zM3.802 18.813c0-2.973 2.718-5.147 5.773-5.147 1.556 0 2.975 0.55 4.026 1.456l0.006 0.005c1.043 0.913 1.728 2.216 1.728 3.686v3.667c0 3.038-2.795 4.92-5.76 4.92-2.964 0-5.773-1.895-5.773-4.92v-3.667z"></path>
<path d="M25.227 14.267c-0.479 0-0.9 0.186-1.204 0.497l-0.018 0.018c-0.355 0.346-0.553 0.839-0.503 1.363l0.001 0.012h-0c0.071 0.847 0.885 1.576 1.883 1.576h2.591c0.216-0.014 0.356-0.182 0.356-0.36v-2.747c0-0.177-0.141-0.346-0.356-0.36h-2.75zM22.599 13.36c0.682-0.696 1.618-1.093 2.628-1.093h2.773c0.012 0 0.024 0 0.036 0.001 1.271 0.045 2.298 1.074 2.298 2.359v2.747c0 1.286-1.027 2.314-2.298 2.359-0.012 0-0.024 0.001-0.036 0.001h-2.613c-1.879 0-3.703-1.374-3.876-3.404-0.108-1.149 0.33-2.223 1.088-2.969z"></path>
<path d="M9.333 5.667c-0.326 0-0.635 0.023-0.928 0.068l-0.028 0.004c-1.476 0.185-2.637 0.817-3.432 1.75-0.797 0.935-1.279 2.235-1.279 3.845v2.667c0 0.552-0.448 1-1 1s-1-0.448-1-1v-2.667c0-2.017 0.611-3.797 1.757-5.142s2.774-2.191 4.691-2.435c0.396-0.060 0.802-0.090 1.218-0.090h12c0.36 0 0.748 0.013 1.139 0.076 1.934 0.23 3.58 1.072 4.741 2.417 1.164 1.349 1.786 3.14 1.786 5.173v1.933c0 0.552-0.448 1-1 1h-2.773c-0.479 0-0.9 0.186-1.203 0.498l-0.018 0.018c-0.355 0.346-0.553 0.839-0.503 1.363l0.001 0.012h-0c0.071 0.847 0.885 1.576 1.883 1.576h2.613c0.552 0 1 0.448 1 1v1.933c0 2.227-0.747 4.161-2.126 5.54s-3.313 2.126-5.54 2.126h-3.333c-0.552 0-1-0.448-1-1s0.448-1 1-1h3.333c1.773 0 3.172-0.587 4.126-1.54s1.54-2.353 1.54-4.126v-0.933h-1.613c-1.879 0-3.704-1.374-3.876-3.404-0.108-1.15 0.33-2.224 1.088-2.969 0.682-0.696 1.617-1.093 2.628-1.093h1.773v-0.933c0-1.62-0.491-2.929-1.3-3.867-0.807-0.936-1.986-1.566-3.482-1.74-0.016-0.002-0.033-0.004-0.049-0.007-0.24-0.040-0.51-0.053-0.836-0.053h-12z"></path>
</symbol>
</defs>
</svg>
